<?xml version="1.0" encoding="utf-8"?>
<!-- Generator: Adobe Illustrator 26.0.3, SVG Export Plug-In . SVG Version: 6.00 Build 0)  -->
<svg version="1.1" id="Layer_1" xmlns="http://www.w3.org/2000/svg" xmlns:xlink="http://www.w3.org/1999/xlink" x="0px" y="0px"
	 viewBox="0 0 600 165" style="enable-background:new 0 0 600 165;" xml:space="preserve">
<style type="text/css">
	.st0{fill:#5D3FD3;}
</style>
<path class="st0" d="M149,0l-9.4,15.2c0,0-1,1.9-1.2,3.8c-1.7,15.3-14.2,27.7-30.1,28.9c-3.9,0.3-7.7,0.1-11.5-0.3
	c-9.7-6-21.1-9.5-33.4-9.5c-17.5,0-33.4,7.1-44.8,18.6C7.1,68.2,0,84.1,0,101.6s7.1,33.4,18.6,44.8C30,157.9,45.9,165,63.4,165
	c17.5,0,33.4-7.1,44.8-18.6c11.5-11.5,18.6-27.3,18.6-44.8s-7.1-33.4-18.6-44.8c-0.6-0.6-1.2-1.2-1.9-1.8
	c18.4-3.7,33.1-15,39.4-32.1C148.4,15.7,149.6,8,149,0z M83.6,102.1l-31.3,15.1V85.9L83.6,102.1z M54.3,48.1
	c2.3-2.3,5.5-3.8,9.1-3.8c3.5,0,6.8,1.4,9.1,3.8c2.3,2.3,3.8,5.5,3.8,9.1c0,3.6-1.4,6.8-3.8,9.1c-2.3,2.3-5.6,3.8-9.1,3.8
	c-3.6,0-6.8-1.4-9.1-3.8c-2.3-2.3-3.8-5.5-3.8-9.1C50.5,53.7,52,50.5,54.3,48.1z M10,110.7c-2.3-2.3-3.8-5.5-3.8-9.1
	c0-3.6,1.4-6.8,3.8-9.1c2.3-2.3,5.5-3.8,9.1-3.8c3.5,0,6.8,1.4,9.1,3.8c2.3,2.3,3.8,5.5,3.8,9.1c0,3.6-1.4,6.8-3.8,9.1
	c-2.3,2.3-5.6,3.8-9.1,3.8C15.5,114.4,12.3,113,10,110.7z M41.2,142c-2.5,2.5-5.8,3.8-9.1,3.8c-3.3,0-6.6-1.3-9.1-3.8
	c-2.5-2.5-3.8-5.8-3.8-9.1c0-3.3,1.3-6.6,3.8-9.1c2.5-2.5,5.8-3.8,9.1-3.8c3.3,0,6.6,1.3,9.1,3.8c2.5,2.5,3.8,5.8,3.8,9.1
	C44.9,136.2,43.7,139.5,41.2,142z M41.2,79.3c-2.5,2.5-5.8,3.8-9.1,3.8c-3.3,0-6.6-1.3-9.1-3.8c-2.5-2.5-3.8-5.8-3.8-9.1
	c0-3.3,1.3-6.6,3.8-9.1c2.5-2.5,5.8-3.8,9.1-3.8c3.3,0,6.6,1.3,9.1,3.8c2.5,2.5,3.8,5.8,3.8,9.1C44.9,73.5,43.7,76.8,41.2,79.3z
	 M72.5,155c-2.3,2.3-5.6,3.8-9.1,3.8c-3.6,0-6.8-1.4-9.1-3.8c-2.3-2.3-3.8-5.5-3.8-9.1c0-3.6,1.4-6.8,3.8-9.1
	c2.3-2.3,5.5-3.8,9.1-3.8c3.5,0,6.8,1.4,9.1,3.8c2.3,2.3,3.8,5.5,3.8,9.1C76.3,149.5,74.9,152.7,72.5,155z M103.9,142
	c-2.5,2.5-5.8,3.8-9.1,3.8c-3.3,0-6.6-1.3-9.1-3.8c-2.5-2.5-3.8-5.8-3.8-9.1c0-3.3,1.3-6.6,3.8-9.1c2.5-2.5,5.8-3.8,9.1-3.8
	c3.3,0,6.6,1.3,9.1,3.8c2.5,2.5,3.8,5.8,3.8,9.1C107.6,136.2,106.4,139.5,103.9,142z M116.9,92.5c2.3,2.3,3.8,5.5,3.8,9.1
	c0,3.6-1.4,6.8-3.8,9.1c-2.3,2.3-5.6,3.8-9.1,3.8c-3.6,0-6.8-1.4-9.1-3.8c-2.3-2.3-3.8-5.5-3.8-9.1c0-3.6,1.4-6.8,3.8-9.1
	c2.3-2.3,5.5-3.8,9.1-3.8C111.3,88.7,114.5,90.1,116.9,92.5z M103.9,79.3c-2.5,2.5-5.8,3.8-9.1,3.8c-3.3,0-6.6-1.3-9.1-3.8
	c-2.5-2.5-3.8-5.8-3.8-9.1c0-3.3,1.3-6.6,3.8-9.1c2.5-2.5,5.8-3.8,9.1-3.8c3.3,0,6.6,1.3,9.1,3.8c2.5,2.5,3.8,5.8,3.8,9.1
	C107.6,73.5,106.4,76.8,103.9,79.3z"/>
<g>
	<path class="st0" d="M172.2,114.2c0.8,1.1,1.7,2.1,2.7,3l6,5.8l6-5.8c5.9-5.9,8.9-13.1,8.9-21.7V70.2h4.9v25.3
		c0,10-3.5,18.4-10.4,25.1v0.1l-9.4,9.2l-8.6-8.4l-8.6,8.4l-9.4-9.2v-0.1c-3.3-3.2-5.8-7-7.6-11.5s-2.7-9-2.7-13.7V70.2h4.9v25.3
		c0,8.4,3,15.7,8.9,21.7h0.1l5.9,5.8l6-5.8C171,115.8,171.9,114.8,172.2,114.2z M167,108.4l5.2-7.7l5.2,7.7c0.9,1.3,2,2.6,3.4,4
		l0.6-0.6c4.4-4.4,6.6-9.8,6.6-16.3V70.2h4.9v25.3c0,7.7-2.7,14.3-8.1,19.7v0.1l-4,3.9c-1.3-1.2-3.2-3.2-5.8-6
		c-0.9-1.1-1.8-2.3-2.8-3.9c-0.6,0.9-1.5,2.2-2.7,3.9c-0.6,0.7-2.5,2.7-5.9,6l-4-3.9v-0.1c-5.4-5.4-8-11.9-8-19.7V70.2h4.9v25.3
		c0,6.5,2.2,11.9,6.6,16.3l0.6,0.6C165.2,110.8,166.3,109.4,167,108.4z"/>
	<path class="st0" d="M248.4,127.4h-4.9V75.1h-1.4c-6.7,0-12.6,2.1-17.8,6.3c-5.2,4.2-8.5,9.5-9.8,16h-10.2v-4.8h6.5
		c2.3-6.7,6.4-12.1,12.1-16.2s12.2-6.2,19.2-6.2h6.3V127.4z M214,100.2c-0.1,1.3-0.2,2.3-0.2,3.1v24.1h-4.9V105h-4.7v-4.8H214z
		 M240.7,127.4h-4.8V105h-14.3v22.3h-4.9v-24.1c0-0.8,0-1.8,0.2-3.1h23.9V127.4z M240.7,97.4h-23.3c1.4-5.5,4.2-10,8.4-13.6
		c4.3-3.6,9.2-5.6,14.9-5.9V97.4z M235.8,92.5v-8.8c-4.8,1.5-8.5,4.4-11.2,8.8H235.8z"/>
	<path class="st0" d="M282.8,75H252v-4.8h30.7V75z M266,127.4h-4.9V82.8H252v-4.9h14V127.4z M282.8,82.8h-9.1v44.6h-4.9V77.8h14
		V82.8z"/>
	<path class="st0" d="M322.3,127.4h-2.8c-9.1,0-16.9-3.2-23.4-9.7c-6.5-6.5-9.7-14.3-9.7-23.4V70.2h35.9v4.9h-31.1v19.2
		c0,7.7,2.8,14.4,8.3,19.9c5.6,5.6,12.2,8.3,19.9,8.3h2.8V127.4z M322.3,119.7h-2.8c-7,0-13-2.5-18-7.5s-7.5-11-7.5-17.9V77.8h28.2
		v4.9H299v11.5c0,5.7,2,10.6,6,14.5c4,4,8.8,6,14.5,6h2.8V119.7z"/>
	<path class="st0" d="M339.1,97.4h-13.2v-4.8h8.3V70.2h4.9V97.4z M339.1,127.4h-4.9V105h-8.3v-4.8h13.2V127.4z M362.7,97.4h-20.8
		V70.2h4.8v22.3h11.1V70.2h4.9V97.4z M362.7,127.4h-4.9V105h-11.1v22.3h-4.8v-27.2h20.8V127.4z M370.5,127.4h-4.9V70.2h4.9V127.4z"
		/>
	<path class="st0" d="M388.3,97.5H374v-4.9h14.4V97.5z M388.3,105.3H374v-4.9h14.4V105.3z"/>
	<path class="st0" d="M411.7,123.1l6-5.8c6-6,8.9-13.2,8.9-21.7V70.2h4.8v25.3c0,10-3.5,18.4-10.4,25.1v0.1l-9.4,9.2l-9.4-9.2v-0.1
		c-6.9-6.8-10.4-15.1-10.4-25.1V70.2h4.9v25.3c0,8.6,3,15.8,8.9,21.7L411.7,123.1z M418.9,95.5V70.2h4.9v25.3
		c0,7.7-2.7,14.3-8.1,19.7v0.1l-4,3.9l-4-3.9v-0.1c-5.4-5.4-8.1-12-8.1-19.7V70.2h4.9v25.3c0,6.5,2.2,11.9,6.6,16.3l0.6,0.6l0.6-0.6
		C416.7,107.4,418.9,102,418.9,95.5z"/>
	<path class="st0" d="M471,127.4h-2.8c-9.1,0-16.9-3.2-23.4-9.7c-6.5-6.5-9.7-14.3-9.7-23.4V70.2H471v4.9H440v19.2
		c0,7.7,2.8,14.4,8.3,19.9c5.6,5.6,12.2,8.3,19.9,8.3h2.8V127.4z M471,82.8h-23.3v8.4H462V96h-19.2c0-0.4-0.1-0.9-0.1-1.7V77.8H471
		V82.8z M471,119.7h-2.8c-7,0-12.9-2.5-17.9-7.5c-3.8-3.8-6.2-8.3-7.1-13.4H462v4.9h-12c1.1,1.9,2.3,3.6,3.7,5.1c3.9,4,8.8,6,14.5,6
		h2.8V119.7z"/>
	<path class="st0" d="M513.8,127.3h-4.9V121c0-7.7-2.8-14.4-8.3-19.9c-1-1-1.9-1.7-2.7-2.3c3.5-2.7,6.2-6,8.1-10
		c1.9-3.9,2.9-8,2.9-12.4V75h-29.7v52.3h-4.8V70.1h39.4v6.3c0,5.6-1.3,10.7-3.9,15.5c-1.4,2.5-3,4.8-4.8,6.9
		c5.8,6.3,8.7,13.7,8.7,22.3V127.3z M506.1,77.8c-0.3,7.9-3.8,14.3-10.6,19.3c-4.1-2.6-8.6-4-13.4-4.2V77.8H506.1z M506.1,127.3
		h-4.8V121c0-4.4-1.3-8.4-4-12c-2.7-3.6-6.1-6.1-10.3-7.4v25.8h-4.9V95.7c6.7,0.3,12.3,2.9,17,7.8c4.7,4.9,7,10.7,7,17.5V127.3z
		 M500.4,82.7H487v5.9c2.6,0.5,5.3,1.4,8,2.6c1.5-1.5,2.8-3.2,3.9-5.2C499.5,84.8,500,83.7,500.4,82.7z"/>
	<path class="st0" d="M557.8,75.1h-6.5c-6.9,0-12.9,2.2-18.1,6.5c-5.2,4.3-8.4,10-9.7,17l-0.3,1.6h28.5c-1.4,5.7-4.4,10.4-9,14
		c-4.6,3.7-9.9,5.5-15.8,5.5h-6.5v-4.9h6.5c3.5,0,6.9-0.9,10-2.6c3.1-1.7,5.6-4.1,7.5-7.1h-27l1.2-7.3c1.3-7.9,5.1-14.4,11.3-19.7
		c6.2-5.3,13.3-7.9,21.4-7.9h6.5V75.1z M560.9,92.5l-1.2,7.3c-1.3,7.9-5.1,14.4-11.3,19.7s-13.3,7.8-21.3,7.8h-6.5v-4.8h6.5
		c6.9,0,12.9-2.2,18.1-6.6c5.2-4.4,8.4-10,9.7-16.9l0.3-1.7h-28.6c1.4-5.7,4.4-10.3,9.1-14c4.7-3.7,9.9-5.5,15.7-5.5h6.5v4.9h-6.5
		c-3.5,0-6.9,0.9-10,2.7c-3.2,1.8-5.6,4.1-7.5,7.1H560.9z"/>
	<path class="st0" d="M600.4,127.4h-2.8c-9.1,0-16.9-3.2-23.4-9.7c-6.5-6.5-9.7-14.3-9.7-23.4V70.2h35.9v4.9h-31.1v19.2
		c0,7.7,2.8,14.4,8.3,19.9c5.6,5.6,12.2,8.3,19.9,8.3h2.8V127.4z M600.4,82.8h-23.3v8.4h14.3V96h-19.2c0-0.4-0.1-0.9-0.1-1.7V77.8
		h28.2V82.8z M600.4,119.7h-2.8c-7,0-12.9-2.5-17.9-7.5c-3.8-3.8-6.2-8.3-7.1-13.4h18.9v4.9h-12c1.1,1.9,2.3,3.6,3.7,5.1
		c3.9,4,8.8,6,14.5,6h2.8V119.7z"/>
</g>
</svg>
